<?xml version="1.0" encoding="UTF-8" standalone="no"?>
<!DOCTYPE svg PUBLIC "-//W3C//DTD SVG 1.1//EN"
 "http://www.w3.org/Graphics/SVG/1.1/DTD/svg11.dtd">
<!-- Generated by graphviz version 2.38.0 (20140413.2041)
 -->
<!-- Title: ADT7310 Pages: 1 -->
<svg width="4823pt" height="1338pt"
 viewBox="0.00 0.00 4823.23 1338.00" xmlns="http://www.w3.org/2000/svg" xmlns:xlink="http://www.w3.org/1999/xlink">
<g id="graph0" class="graph" transform="scale(1 1) rotate(0) translate(4 1334)">
<title>ADT7310</title>
<polygon fill="white" stroke="none" points="-4,4 -4,-1334 4819.23,-1334 4819.23,4 -4,4"/>
<!-- InstInReconfModuleIn_i_0 -->
<g id="node1" class="node"><title>InstInReconfModuleIn_i_0</title>
<ellipse fill="none" stroke="black" cx="107.24" cy="-1132" rx="107.482" ry="18"/>
<text text-anchor="middle" x="107.24" y="-1128.3" font-family="Times,serif" font-size="14.00">InstInReconfModuleIn_i_0</text>
</g>
<!-- TRFSM0_1 -->
<g id="node28" class="node"><title>TRFSM0_1</title>
<ellipse fill="none" stroke="black" cx="470.269" cy="-917" rx="53.0913" ry="18"/>
<text text-anchor="middle" x="470.269" y="-913.3" font-family="Times,serif" font-size="14.00">TRFSM0_1</text>
</g>
<!-- InstInReconfModuleIn_i_0&#45;&gt;TRFSM0_1 -->
<g id="edge1" class="edge"><title>InstInReconfModuleIn_i_0&#45;&gt;TRFSM0_1</title>
<path fill="none" stroke="black" d="M137.479,-1114.59C203.348,-1075.36 363.126,-980.211 434.187,-937.892"/>
<polygon fill="black" stroke="black" points="436.405,-940.645 443.206,-932.521 432.823,-934.631 436.405,-940.645"/>
<text text-anchor="middle" x="273.481" y="-1059.8" font-family="Times,serif" font-size="14.00">Enable_i</text>
</g>
<!-- InstOutReconfModuleIRQs_o_0 -->
<g id="node2" class="node"><title>InstOutReconfModuleIRQs_o_0</title>
<ellipse fill="none" stroke="black" cx="1143.98" cy="-943" rx="126.178" ry="18"/>
<text text-anchor="middle" x="1143.98" y="-939.3" font-family="Times,serif" font-size="14.00">InstOutReconfModuleIRQs_o_0</text>
</g>
<!-- InstOutOutputs_o_0 -->
<g id="node3" class="node"><title>InstOutOutputs_o_0</title>
<ellipse fill="none" stroke="black" cx="2068.23" cy="-408" rx="82.5854" ry="18"/>
<text text-anchor="middle" x="2068.23" y="-404.3" font-family="Times,serif" font-size="14.00">InstOutOutputs_o_0</text>
</g>
<!-- InstInSPI_DataOut_i -->
<g id="node4" class="node"><title>InstInSPI_DataOut_i</title>
<ellipse fill="none" stroke="black" cx="1143.98" cy="-525" rx="85.2851" ry="18"/>
<text text-anchor="middle" x="1143.98" y="-521.3" font-family="Times,serif" font-size="14.00">InstInSPI_DataOut_i</text>
</g>
<!-- $techmap\SPIFSM_1.$extract$\ByteRegister$2536 -->
<g id="node21" class="node"><title>$techmap\SPIFSM_1.$extract$\ByteRegister$2536</title>
<ellipse fill="none" stroke="black" cx="2068.23" cy="-552" rx="187.667" ry="18"/>
<text text-anchor="middle" x="2068.23" y="-548.3" font-family="Times,serif" font-size="14.00">$techmapSPIFSM_1.$extract$ByteRegister$2536</text>
</g>
<!-- InstInSPI_DataOut_i&#45;&gt;$techmap\SPIFSM_1.$extract$\ByteRegister$2536 -->
<g id="edge4" class="edge"><title>InstInSPI_DataOut_i&#45;&gt;$techmap\SPIFSM_1.$extract$\ByteRegister$2536</title>
<path fill="none" stroke="black" d="M1228.45,-527.444C1374.31,-531.714 1678.97,-540.633 1878.18,-546.465"/>
<polygon fill="black" stroke="black" points="1878.08,-549.964 1888.18,-546.758 1878.28,-542.967 1878.08,-549.964"/>
<text text-anchor="middle" x="1607.41" y="-547.8" font-family="Times,serif" font-size="14.00">SPI_Data_i</text>
</g>
<!-- $techmap\SPIFSM_1.$extract$\ByteRegister$2537 -->
<g id="node22" class="node"><title>$techmap\SPIFSM_1.$extract$\ByteRegister$2537</title>
<ellipse fill="none" stroke="black" cx="2068.23" cy="-498" rx="187.667" ry="18"/>
<text text-anchor="middle" x="2068.23" y="-494.3" font-family="Times,serif" font-size="14.00">$techmapSPIFSM_1.$extract$ByteRegister$2537</text>
</g>
<!-- InstInSPI_DataOut_i&#45;&gt;$techmap\SPIFSM_1.$extract$\ByteRegister$2537 -->
<g id="edge5" class="edge"><title>InstInSPI_DataOut_i&#45;&gt;$techmap\SPIFSM_1.$extract$\ByteRegister$2537</title>
<path fill="none" stroke="black" d="M1228.03,-521.994C1286.44,-519.92 1366.45,-517.157 1436.91,-515 1584.33,-510.487 1751.16,-506.016 1876.14,-502.792"/>
<polygon fill="black" stroke="black" points="1876.29,-506.29 1886.2,-502.533 1876.11,-499.292 1876.29,-506.29"/>
<text text-anchor="middle" x="1607.41" y="-518.8" font-family="Times,serif" font-size="14.00">SPI_Data_i</text>
</g>
<!-- InstOutSPI_Write_o -->
<g id="node5" class="node"><title>InstOutSPI_Write_o</title>
<ellipse fill="none" stroke="black" cx="2068.23" cy="-354" rx="83.3857" ry="18"/>
<text text-anchor="middle" x="2068.23" y="-350.3" font-family="Times,serif" font-size="14.00">InstOutSPI_Write_o</text>
</g>
<!-- InstOutSPI_ReadNext_o -->
<g id="node6" class="node"><title>InstOutSPI_ReadNext_o</title>
<ellipse fill="none" stroke="black" cx="2068.23" cy="-300" rx="98.2828" ry="18"/>
<text text-anchor="middle" x="2068.23" y="-296.3" font-family="Times,serif" font-size="14.00">InstOutSPI_ReadNext_o</text>
</g>
<!-- InstOutSPI_DataIn_o -->
<g id="node7" class="node"><title>InstOutSPI_DataIn_o</title>
<ellipse fill="none" stroke="black" cx="2688.06" cy="-164" rx="87.1846" ry="18"/>
<text text-anchor="middle" x="2688.06" y="-160.3" font-family="Times,serif" font-size="14.00">InstOutSPI_DataIn_o</text>
</g>
<!-- InstInSPI_FIFOFull_i -->
<g id="node8" class="node"><title>InstInSPI_FIFOFull_i</title>
<ellipse fill="none" stroke="black" cx="107.24" cy="-1186" rx="88.2844" ry="18"/>
<text text-anchor="middle" x="107.24" y="-1182.3" font-family="Times,serif" font-size="14.00">InstInSPI_FIFOFull_i</text>
</g>
<!-- InstInSPI_FIFOEmpty_i -->
<g id="node9" class="node"><title>InstInSPI_FIFOEmpty_i</title>
<ellipse fill="none" stroke="black" cx="107.24" cy="-1240" rx="98.2828" ry="18"/>
<text text-anchor="middle" x="107.24" y="-1236.3" font-family="Times,serif" font-size="14.00">InstInSPI_FIFOEmpty_i</text>
</g>
<!-- InstInSPI_Transmission_i -->
<g id="node10" class="node"><title>InstInSPI_Transmission_i</title>
<ellipse fill="none" stroke="black" cx="470.269" cy="-221" rx="102.882" ry="18"/>
<text text-anchor="middle" x="470.269" y="-217.3" font-family="Times,serif" font-size="14.00">InstInSPI_Transmission_i</text>
</g>
<!-- TRFSM1_1 -->
<g id="node29" class="node"><title>TRFSM1_1</title>
<ellipse fill="none" stroke="black" cx="1143.98" cy="-428" rx="53.0913" ry="18"/>
<text text-anchor="middle" x="1143.98" y="-424.3" font-family="Times,serif" font-size="14.00">TRFSM1_1</text>
</g>
<!-- InstInSPI_Transmission_i&#45;&gt;TRFSM1_1 -->
<g id="edge9" class="edge"><title>InstInSPI_Transmission_i&#45;&gt;TRFSM1_1</title>
<path fill="none" stroke="black" d="M566.525,-214.608C644.82,-212.322 757.656,-215.916 851.057,-246 958.804,-280.705 1067.02,-363.784 1115.96,-404.584"/>
<polygon fill="black" stroke="black" points="1113.94,-407.46 1123.84,-411.223 1118.45,-402.105 1113.94,-407.46"/>
<text text-anchor="middle" x="738.557" y="-249.8" font-family="Times,serif" font-size="14.00">SPI_Transmission_i</text>
</g>
<!-- InstParamIn_PeriodCounterPreset_i -->
<g id="node11" class="node"><title>InstParamIn_PeriodCounterPreset_i</title>
<ellipse fill="none" stroke="black" cx="470.269" cy="-1045" rx="137.576" ry="18"/>
<text text-anchor="middle" x="470.269" y="-1041.3" font-family="Times,serif" font-size="14.00">InstParamIn_PeriodCounterPreset_i</text>
</g>
<!-- $techmap\SensorFSM_1.$extract$\Counter_RV1_Timer$2532.ThisCounter -->
<g id="node26" class="node"><title>$techmap\SensorFSM_1.$extract$\Counter_RV1_Timer$2532.ThisCounter</title>
<ellipse fill="none" stroke="black" cx="1143.98" cy="-1040" rx="274.851" ry="18"/>
<text text-anchor="middle" x="1143.98" y="-1036.3" font-family="Times,serif" font-size="14.00">$techmapSensorFSM_1.$extract$Counter_RV1_Timer$2532.ThisCounter</text>
</g>
<!-- InstParamIn_PeriodCounterPreset_i&#45;&gt;$techmap\SensorFSM_1.$extract$\Counter_RV1_Timer$2532.ThisCounter -->
<g id="edge10" class="edge"><title>InstParamIn_PeriodCounterPreset_i&#45;&gt;$techmap\SensorFSM_1.$extract$\Counter_RV1_Timer$2532.ThisCounter</title>
<path fill="none" stroke="black" d="M607.588,-1046.86C613.83,-1046.91 620.01,-1046.96 626.057,-1047 726.054,-1047.65 751.064,-1048.2 851.057,-1047 859.712,-1046.9 868.511,-1046.78 877.397,-1046.64"/>
<polygon fill="black" stroke="black" points="877.519,-1050.14 887.463,-1046.48 877.409,-1043.14 877.519,-1050.14"/>
<text text-anchor="middle" x="738.557" y="-1050.8" font-family="Times,serif" font-size="14.00">PeriodCounterPreset_i</text>
</g>
<!-- InstParamIn_SPICounterPresetH_i -->
<g id="node12" class="node"><title>InstParamIn_SPICounterPresetH_i</title>
<ellipse fill="none" stroke="black" cx="1143.98" cy="-721" rx="133.776" ry="18"/>
<text text-anchor="middle" x="1143.98" y="-717.3" font-family="Times,serif" font-size="14.00">InstParamIn_SPICounterPresetH_i</text>
</g>
<!-- $techmap\SPIFSM_1.$extract$\Counter32_RV1_Timer$2533.ThisCounter -->
<g id="node23" class="node"><title>$techmap\SPIFSM_1.$extract$\Counter32_RV1_Timer$2533.ThisCounter</title>
<ellipse fill="none" stroke="black" cx="2068.23" cy="-688" rx="272.152" ry="18"/>
<text text-anchor="middle" x="2068.23" y="-684.3" font-family="Times,serif" font-size="14.00">$techmapSPIFSM_1.$extract$Counter32_RV1_Timer$2533.ThisCounter</text>
</g>
<!-- InstParamIn_SPICounterPresetH_i&#45;&gt;$techmap\SPIFSM_1.$extract$\Counter32_RV1_Timer$2533.ThisCounter -->
<g id="edge11" class="edge"><title>InstParamIn_SPICounterPresetH_i&#45;&gt;$techmap\SPIFSM_1.$extract$\Counter32_RV1_Timer$2533.ThisCounter</title>
<path fill="none" stroke="black" d="M1274.08,-716.636C1401.99,-712.282 1603.48,-705.347 1777.91,-699 1792.19,-698.48 1806.87,-697.94 1821.69,-697.391"/>
<polygon fill="black" stroke="black" points="1822.1,-700.878 1831.96,-697.009 1821.84,-693.883 1822.1,-700.878"/>
<text text-anchor="middle" x="1607.41" y="-713.8" font-family="Times,serif" font-size="14.00">SPICounterPresetH_i</text>
</g>
<!-- InstParamIn_SPICounterPresetL_i -->
<g id="node13" class="node"><title>InstParamIn_SPICounterPresetL_i</title>
<ellipse fill="none" stroke="black" cx="1143.98" cy="-775" rx="133.477" ry="18"/>
<text text-anchor="middle" x="1143.98" y="-771.3" font-family="Times,serif" font-size="14.00">InstParamIn_SPICounterPresetL_i</text>
</g>
<!-- InstParamIn_SPICounterPresetL_i&#45;&gt;$techmap\SPIFSM_1.$extract$\Counter32_RV1_Timer$2533.ThisCounter -->
<g id="edge12" class="edge"><title>InstParamIn_SPICounterPresetL_i&#45;&gt;$techmap\SPIFSM_1.$extract$\Counter32_RV1_Timer$2533.ThisCounter</title>
<path fill="none" stroke="black" d="M1268.61,-768.516C1396.35,-761.23 1601.4,-747.898 1777.91,-729 1835.49,-722.835 1899.24,-714.017 1952.21,-706.137"/>
<polygon fill="black" stroke="black" points="1952.94,-709.567 1962.31,-704.626 1951.91,-702.644 1952.94,-709.567"/>
<text text-anchor="middle" x="1607.41" y="-760.8" font-family="Times,serif" font-size="14.00">SPICounterPresetL_i</text>
</g>
<!-- InstParamOut_SensorValue_o -->
<g id="node14" class="node"><title>InstParamOut_SensorValue_o</title>
<ellipse fill="none" stroke="black" cx="3794.11" cy="-737" rx="118.079" ry="18"/>
<text text-anchor="middle" x="3794.11" y="-733.3" font-family="Times,serif" font-size="14.00">InstParamOut_SensorValue_o</text>
</g>
<!-- InstParamIn_Threshold_i -->
<g id="node15" class="node"><title>InstParamIn_Threshold_i</title>
<ellipse fill="none" stroke="black" cx="3794.11" cy="-805" rx="100.983" ry="18"/>
<text text-anchor="middle" x="3794.11" y="-801.3" font-family="Times,serif" font-size="14.00">InstParamIn_Threshold_i</text>
</g>
<!-- $techmap\SensorFSM_1.$extract$\AddSubCmp_Greater_Direct$2538.ThisAddSubCmp -->
<g id="node25" class="node"><title>$techmap\SensorFSM_1.$extract$\AddSubCmp_Greater_Direct$2538.ThisAddSubCmp</title>
<ellipse fill="none" stroke="black" cx="4494.16" cy="-874" rx="321.143" ry="18"/>
<text text-anchor="middle" x="4494.16" y="-870.3" font-family="Times,serif" font-size="14.00">$techmapSensorFSM_1.$extract$AddSubCmp_Greater_Direct$2538.ThisAddSubCmp</text>
</g>
<!-- InstParamIn_Threshold_i&#45;&gt;$techmap\SensorFSM_1.$extract$\AddSubCmp_Greater_Direct$2538.ThisAddSubCmp -->
<g id="edge15" class="edge"><title>InstParamIn_Threshold_i&#45;&gt;$techmap\SensorFSM_1.$extract$\AddSubCmp_Greater_Direct$2538.ThisAddSubCmp</title>
<path fill="none" stroke="black" d="M3894.63,-806.883C3967.02,-808.938 4067.31,-813.201 4155.09,-822 4233.77,-829.887 4322.07,-843.639 4388.7,-855.02"/>
<polygon fill="black" stroke="black" points="4388.33,-858.509 4398.78,-856.753 4389.52,-851.61 4388.33,-858.509"/>
<text text-anchor="middle" x="4074.59" y="-825.8" font-family="Times,serif" font-size="14.00">Threshold_i</text>
</g>
<!-- InstOutSPI_CPOL_o -->
<g id="node16" class="node"><title>InstOutSPI_CPOL_o</title>
<ellipse fill="none" stroke="black" cx="1143.98" cy="-1312" rx="85.2851" ry="18"/>
<text text-anchor="middle" x="1143.98" y="-1308.3" font-family="Times,serif" font-size="14.00">InstOutSPI_CPOL_o</text>
</g>
<!-- InstOutSPI_CPHA_o -->
<g id="node17" class="node"><title>InstOutSPI_CPHA_o</title>
<ellipse fill="none" stroke="black" cx="1143.98" cy="-1258" rx="86.3847" ry="18"/>
<text text-anchor="middle" x="1143.98" y="-1254.3" font-family="Times,serif" font-size="14.00">InstOutSPI_CPHA_o</text>
</g>
<!-- InstOutSPI_LSBFE_o -->
<g id="node18" class="node"><title>InstOutSPI_LSBFE_o</title>
<ellipse fill="none" stroke="black" cx="470.269" cy="-581" rx="89.0842" ry="18"/>
<text text-anchor="middle" x="470.269" y="-577.3" font-family="Times,serif" font-size="14.00">InstOutSPI_LSBFE_o</text>
</g>
<!-- $extract$\Byte2Word$2543 -->
<g id="node19" class="node"><title>$extract$\Byte2Word$2543</title>
<ellipse fill="none" stroke="black" cx="2688.06" cy="-615" rx="106.681" ry="18"/>
<text text-anchor="middle" x="2688.06" y="-611.3" font-family="Times,serif" font-size="14.00">$extract$Byte2Word$2543</text>
</g>
<!-- $techmap\SensorFSM_1.$extract$\AbsDiff$2534 -->
<g id="node24" class="node"><title>$techmap\SensorFSM_1.$extract$\AbsDiff$2534</title>
<ellipse fill="none" stroke="black" cx="3794.11" cy="-683" rx="181.968" ry="18"/>
<text text-anchor="middle" x="3794.11" y="-679.3" font-family="Times,serif" font-size="14.00">$techmapSensorFSM_1.$extract$AbsDiff$2534</text>
</g>
<!-- $extract$\Byte2Word$2543&#45;&gt;$techmap\SensorFSM_1.$extract$\AbsDiff$2534 -->
<g id="edge35" class="edge"><title>$extract$\Byte2Word$2543&#45;&gt;$techmap\SensorFSM_1.$extract$\AbsDiff$2534</title>
<path fill="none" stroke="black" d="M2788.5,-621.124C2978.87,-632.85 3396.5,-658.573 3628.88,-672.885"/>
<polygon fill="black" stroke="black" points="3628.92,-676.394 3639.12,-673.516 3629.35,-669.408 3628.92,-676.394"/>
<text text-anchor="middle" x="3290.34" y="-667.8" font-family="Times,serif" font-size="14.00">SensorFSM_1.SensorValue</text>
</g>
<!-- $techmap\SensorFSM_1.$extract$\WordRegister$2535 -->
<g id="node27" class="node"><title>$techmap\SensorFSM_1.$extract$\WordRegister$2535</title>
<ellipse fill="none" stroke="black" cx="3290.34" cy="-714" rx="202.564" ry="18"/>
<text text-anchor="middle" x="3290.34" y="-710.3" font-family="Times,serif" font-size="14.00">$techmapSensorFSM_1.$extract$WordRegister$2535</text>
</g>
<!-- $extract$\Byte2Word$2543&#45;&gt;$techmap\SensorFSM_1.$extract$\WordRegister$2535 -->
<g id="edge36" class="edge"><title>$extract$\Byte2Word$2543&#45;&gt;$techmap\SensorFSM_1.$extract$\WordRegister$2535</title>
<path fill="none" stroke="black" d="M2765.09,-627.538C2871.03,-645.011 3063.52,-676.757 3183.46,-696.538"/>
<polygon fill="black" stroke="black" points="3182.96,-700.003 3193.4,-698.177 3184.1,-693.096 3182.96,-700.003"/>
<text text-anchor="middle" x="2994.06" y="-679.8" font-family="Times,serif" font-size="14.00">SensorFSM_1.SensorValue</text>
</g>
<!-- $techmap\SPIFSM_1.$extract$\ByteMuxQuad$2539 -->
<g id="node20" class="node"><title>$techmap\SPIFSM_1.$extract$\ByteMuxQuad$2539</title>
<ellipse fill="none" stroke="black" cx="2068.23" cy="-164" rx="194.166" ry="18"/>
<text text-anchor="middle" x="2068.23" y="-160.3" font-family="Times,serif" font-size="14.00">$techmapSPIFSM_1.$extract$ByteMuxQuad$2539</text>
</g>
<!-- $techmap\SPIFSM_1.$extract$\ByteMuxQuad$2539&#45;&gt;InstOutSPI_DataIn_o -->
<g id="edge8" class="edge"><title>$techmap\SPIFSM_1.$extract$\ByteMuxQuad$2539&#45;&gt;InstOutSPI_DataIn_o</title>
<path fill="none" stroke="black" d="M2262.6,-164C2371.73,-164 2503.33,-164 2590.78,-164"/>
<polygon fill="black" stroke="black" points="2590.95,-167.5 2600.95,-164 2590.95,-160.5 2590.95,-167.5"/>
<text text-anchor="middle" x="2408.06" y="-167.8" font-family="Times,serif" font-size="14.00">SPI_Data_o</text>
</g>
<!-- $techmap\SPIFSM_1.$extract$\ByteRegister$2536&#45;&gt;$extract$\Byte2Word$2543 -->
<g id="edge34" class="edge"><title>$techmap\SPIFSM_1.$extract$\ByteRegister$2536&#45;&gt;$extract$\Byte2Word$2543</title>
<path fill="none" stroke="black" d="M2197.62,-565.092C2313.04,-576.862 2480.27,-593.913 2586.3,-604.726"/>
<polygon fill="black" stroke="black" points="2586.06,-608.22 2596.37,-605.752 2586.77,-601.256 2586.06,-608.22"/>
<text text-anchor="middle" x="2408.06" y="-593.8" font-family="Times,serif" font-size="14.00">SPIFSM_Byte0_s</text>
</g>
<!-- $techmap\SPIFSM_1.$extract$\ByteRegister$2537&#45;&gt;$extract$\Byte2Word$2543 -->
<g id="edge33" class="edge"><title>$techmap\SPIFSM_1.$extract$\ByteRegister$2537&#45;&gt;$extract$\Byte2Word$2543</title>
<path fill="none" stroke="black" d="M2219.43,-508.759C2259,-512.735 2301.53,-518.033 2340.56,-525 2442.32,-543.166 2558.11,-575.716 2626.75,-596.292"/>
<polygon fill="black" stroke="black" points="2625.94,-599.704 2636.53,-599.238 2627.96,-593.002 2625.94,-599.704"/>
<text text-anchor="middle" x="2408.06" y="-553.8" font-family="Times,serif" font-size="14.00">SPIFSM_Byte1_s</text>
</g>
<!-- $techmap\SPIFSM_1.$extract$\Counter32_RV1_Timer$2533.ThisCounter&#45;&gt;TRFSM1_1 -->
<g id="edge48" class="edge"><title>$techmap\SPIFSM_1.$extract$\Counter32_RV1_Timer$2533.ThisCounter&#45;&gt;TRFSM1_1</title>
<path fill="none" stroke="black" d="M2009.13,-670.373C1951.15,-653.588 1859.24,-629.139 1777.91,-617 1740.38,-611.399 1465.33,-623.141 1436.91,-598 1403.08,-568.081 1449.67,-531.062 1418.91,-498 1364.83,-439.874 1269.74,-427.255 1207.04,-425.842"/>
<polygon fill="black" stroke="black" points="1206.93,-422.34 1196.89,-425.704 1206.84,-429.339 1206.93,-422.34"/>
<text text-anchor="middle" x="1607.41" y="-620.8" font-family="Times,serif" font-size="14.00">SPIFSM_1.SPI_FSM_TimerOvfl</text>
</g>
<!-- $techmap\SensorFSM_1.$extract$\AbsDiff$2534&#45;&gt;$techmap\SensorFSM_1.$extract$\AddSubCmp_Greater_Direct$2538.ThisAddSubCmp -->
<g id="edge49" class="edge"><title>$techmap\SensorFSM_1.$extract$\AbsDiff$2534&#45;&gt;$techmap\SensorFSM_1.$extract$\AddSubCmp_Greater_Direct$2538.ThisAddSubCmp</title>
<path fill="none" stroke="black" d="M3908.59,-697.101C3931.08,-700.689 3954.43,-704.982 3976.09,-710 4146.45,-749.459 4341.7,-817.954 4436.11,-852.607"/>
<polygon fill="black" stroke="black" points="4435.16,-855.985 4445.75,-856.156 4437.58,-849.416 4435.16,-855.985"/>
<text text-anchor="middle" x="4074.59" y="-759.8" font-family="Times,serif" font-size="14.00">SensorFSM_1.AbsDiffResult</text>
</g>
<!-- $techmap\SensorFSM_1.$extract$\AddSubCmp_Greater_Direct$2538.ThisAddSubCmp&#45;&gt;TRFSM0_1 -->
<g id="edge50" class="edge"><title>$techmap\SensorFSM_1.$extract$\AddSubCmp_Greater_Direct$2538.ThisAddSubCmp&#45;&gt;TRFSM0_1</title>
<path fill="none" stroke="black" d="M4469.29,-891.953C4383.31,-954.784 4079.45,-1161 3795.11,-1161 2993.06,-1161 2993.06,-1161 2993.06,-1161 2861.56,-1161 724.977,-1234.65 626.057,-1148 582.179,-1109.57 637.854,-1068.14 608.057,-1018 585.821,-980.582 543.823,-952.762 512.203,-935.897"/>
<polygon fill="black" stroke="black" points="513.661,-932.71 503.171,-931.223 510.444,-938.928 513.661,-932.71"/>
<text text-anchor="middle" x="2688.06" y="-1176.8" font-family="Times,serif" font-size="14.00">$techmapSensorFSM_1.$extract$AddSubCmp_Greater_Direct$2538.Carry_s</text>
</g>
<!-- $techmap\SensorFSM_1.$extract$\AddSubCmp_Greater_Direct$2538.ThisAddSubCmp&#45;&gt;TRFSM0_1 -->
<g id="edge51" class="edge"><title>$techmap\SensorFSM_1.$extract$\AddSubCmp_Greater_Direct$2538.ThisAddSubCmp&#45;&gt;TRFSM0_1</title>
<path fill="none" stroke="black" d="M4252.14,-885.854C4117.68,-891.483 3947.13,-897 3795.11,-897 1606.41,-897 1606.41,-897 1606.41,-897 1170.66,-897 1061.62,-897.267 626.057,-910 595.523,-910.893 561.622,-912.371 533.348,-913.739"/>
<polygon fill="black" stroke="black" points="533.019,-910.251 523.202,-914.237 533.362,-917.243 533.019,-910.251"/>
<text text-anchor="middle" x="2688.06" y="-900.8" font-family="Times,serif" font-size="14.00">$techmapSensorFSM_1.$extract$AddSubCmp_Greater_Direct$2538.Zero_s</text>
</g>
<!-- $techmap\SensorFSM_1.$extract$\Counter_RV1_Timer$2532.ThisCounter&#45;&gt;TRFSM0_1 -->
<g id="edge54" class="edge"><title>$techmap\SensorFSM_1.$extract$\Counter_RV1_Timer$2532.ThisCounter&#45;&gt;TRFSM0_1</title>
<path fill="none" stroke="black" d="M1023.44,-1023.81C973.405,-1013.48 916.079,-996.785 869.057,-970 859.226,-964.4 861.317,-956.766 851.057,-952 805.548,-930.863 676.015,-937.691 626.057,-933 594.914,-930.076 560.28,-926.524 531.682,-923.51"/>
<polygon fill="black" stroke="black" points="531.749,-919.998 521.437,-922.426 531.013,-926.959 531.749,-919.998"/>
<text text-anchor="middle" x="738.557" y="-955.8" font-family="Times,serif" font-size="14.00">SensorFSM_1.SensorFSM_TimerOvfl</text>
</g>
<!-- $techmap\SensorFSM_1.$extract$\WordRegister$2535&#45;&gt;InstParamOut_SensorValue_o -->
<g id="edge13" class="edge"><title>$techmap\SensorFSM_1.$extract$\WordRegister$2535&#45;&gt;InstParamOut_SensorValue_o</title>
<path fill="none" stroke="black" d="M3471.07,-722.239C3537.13,-725.267 3610.36,-728.623 3670.28,-731.37"/>
<polygon fill="black" stroke="black" points="3670.39,-734.879 3680.54,-731.84 3670.71,-727.886 3670.39,-734.879"/>
<text text-anchor="middle" x="3552.62" y="-730.8" font-family="Times,serif" font-size="14.00">SensorValue_o</text>
</g>
<!-- $techmap\SensorFSM_1.$extract$\WordRegister$2535&#45;&gt;$techmap\SensorFSM_1.$extract$\AbsDiff$2534 -->
<g id="edge14" class="edge"><title>$techmap\SensorFSM_1.$extract$\WordRegister$2535&#45;&gt;$techmap\SensorFSM_1.$extract$\AbsDiff$2534</title>
<path fill="none" stroke="black" d="M3457.38,-703.742C3512.58,-700.331 3574,-696.537 3629.06,-693.135"/>
<polygon fill="black" stroke="black" points="3629.5,-696.615 3639.26,-692.505 3629.06,-689.628 3629.5,-696.615"/>
<text text-anchor="middle" x="3552.62" y="-703.8" font-family="Times,serif" font-size="14.00">SensorValue_o</text>
</g>
<!-- TRFSM0_1&#45;&gt;InstOutReconfModuleIRQs_o_0 -->
<g id="edge2" class="edge"><title>TRFSM0_1&#45;&gt;InstOutReconfModuleIRQs_o_0</title>
<path fill="none" stroke="black" d="M523.518,-915.771C596.768,-914.36 734.134,-912.848 851.057,-918 911.096,-920.645 977.895,-926.174 1032.43,-931.361"/>
<polygon fill="black" stroke="black" points="1032.17,-934.852 1042.46,-932.324 1032.84,-927.884 1032.17,-934.852"/>
<text text-anchor="middle" x="738.557" y="-921.8" font-family="Times,serif" font-size="14.00">CpuIntr_o</text>
</g>
<!-- TRFSM0_1&#45;&gt;$techmap\SensorFSM_1.$extract$\Counter_RV1_Timer$2532.ThisCounter -->
<g id="edge52" class="edge"><title>TRFSM0_1&#45;&gt;$techmap\SensorFSM_1.$extract$\Counter_RV1_Timer$2532.ThisCounter</title>
<path fill="none" stroke="black" d="M491.761,-933.604C520.024,-955.417 573.463,-992.841 626.057,-1009 640.492,-1013.44 782.196,-1021.76 913.585,-1028.66"/>
<polygon fill="black" stroke="black" points="913.661,-1032.17 923.831,-1029.2 914.027,-1025.18 913.661,-1032.17"/>
<text text-anchor="middle" x="738.557" y="-1028.8" font-family="Times,serif" font-size="14.00">SensorFSM_1.SensorFSM_TimerEnable</text>
</g>
<!-- TRFSM0_1&#45;&gt;$techmap\SensorFSM_1.$extract$\Counter_RV1_Timer$2532.ThisCounter -->
<g id="edge53" class="edge"><title>TRFSM0_1&#45;&gt;$techmap\SensorFSM_1.$extract$\Counter_RV1_Timer$2532.ThisCounter</title>
<path fill="none" stroke="black" d="M503.795,-931.046C534.653,-943.718 582.632,-961.746 626.057,-971 724.209,-991.916 751.508,-977.295 851.057,-990 916.014,-998.29 988.588,-1010.71 1045.13,-1021.09"/>
<polygon fill="black" stroke="black" points="1044.66,-1024.56 1055.13,-1022.94 1045.93,-1017.68 1044.66,-1024.56"/>
<text text-anchor="middle" x="738.557" y="-993.8" font-family="Times,serif" font-size="14.00">SensorFSM_1.SensorFSM_TimerPreset</text>
</g>
<!-- TRFSM0_1&#45;&gt;$techmap\SensorFSM_1.$extract$\WordRegister$2535 -->
<g id="edge55" class="edge"><title>TRFSM0_1&#45;&gt;$techmap\SensorFSM_1.$extract$\WordRegister$2535</title>
<path fill="none" stroke="black" d="M507.967,-904.123C539.008,-893.826 584.88,-879.996 626.057,-873 867.883,-831.914 2532.95,-749.96 3100.4,-722.9"/>
<polygon fill="black" stroke="black" points="3100.9,-726.379 3110.73,-722.407 3100.57,-719.387 3100.9,-726.379"/>
<text text-anchor="middle" x="2068.23" y="-792.8" font-family="Times,serif" font-size="14.00">SensorFSM_1.SensorFSM_StoreNewValue</text>
</g>
<!-- TRFSM0_1&#45;&gt;TRFSM1_1 -->
<g id="edge57" class="edge"><title>TRFSM0_1&#45;&gt;TRFSM1_1</title>
<path fill="none" stroke="black" d="M498.441,-901.702C584.476,-853.208 845.581,-705.581 851.057,-697 874.942,-659.569 840.268,-531.806 869.057,-498 920.832,-437.201 1017.43,-425.408 1080.97,-424.888"/>
<polygon fill="black" stroke="black" points="1081.26,-428.388 1091.26,-424.9 1081.27,-421.388 1081.26,-428.388"/>
<text text-anchor="middle" x="738.557" y="-826.8" font-family="Times,serif" font-size="14.00">SPIFSM_Start_s</text>
</g>
<!-- TRFSM1_1&#45;&gt;InstOutOutputs_o_0 -->
<g id="edge3" class="edge"><title>TRFSM1_1&#45;&gt;InstOutOutputs_o_0</title>
<path fill="none" stroke="black" d="M1192.61,-420.518C1250.27,-411.87 1350.41,-398.167 1436.91,-393 1630.6,-381.43 1858.28,-393.076 1980.01,-401.333"/>
<polygon fill="black" stroke="black" points="1979.8,-404.827 1990.02,-402.021 1980.28,-397.844 1979.8,-404.827"/>
<text text-anchor="middle" x="1607.41" y="-396.8" font-family="Times,serif" font-size="14.00">ADT7310CS_n_o</text>
</g>
<!-- TRFSM1_1&#45;&gt;InstOutSPI_Write_o -->
<g id="edge6" class="edge"><title>TRFSM1_1&#45;&gt;InstOutSPI_Write_o</title>
<path fill="none" stroke="black" d="M1187.17,-417.257C1243.62,-403.428 1347.04,-379.994 1436.91,-370 1627.52,-348.803 1852.46,-349.125 1975.46,-351.441"/>
<polygon fill="black" stroke="black" points="1975.52,-354.942 1985.59,-351.64 1975.66,-347.944 1975.52,-354.942"/>
<text text-anchor="middle" x="1607.41" y="-373.8" font-family="Times,serif" font-size="14.00">SPI_Write_o</text>
</g>
<!-- TRFSM1_1&#45;&gt;InstOutSPI_ReadNext_o -->
<g id="edge7" class="edge"><title>TRFSM1_1&#45;&gt;InstOutSPI_ReadNext_o</title>
<path fill="none" stroke="black" d="M1177.95,-414.106C1231.27,-392.365 1340.22,-350.939 1436.91,-333 1618.78,-299.254 1834.87,-295.663 1960.97,-297.132"/>
<polygon fill="black" stroke="black" points="1960.97,-300.632 1971.01,-297.262 1961.06,-293.633 1960.97,-300.632"/>
<text text-anchor="middle" x="1607.41" y="-336.8" font-family="Times,serif" font-size="14.00">SPI_ReadNext_o</text>
</g>
<!-- TRFSM1_1&#45;&gt;$techmap\SPIFSM_1.$extract$\ByteMuxQuad$2539 -->
<g id="edge41" class="edge"><title>TRFSM1_1&#45;&gt;$techmap\SPIFSM_1.$extract$\ByteMuxQuad$2539</title>
<path fill="none" stroke="black" d="M1168.64,-411.963C1216.7,-380.349 1330.26,-310.497 1436.91,-281 1583.37,-240.491 1628.7,-284.778 1777.91,-256 1862.06,-239.77 1956.03,-207.045 2013.4,-185.324"/>
<polygon fill="black" stroke="black" points="2014.88,-188.504 2022.98,-181.67 2012.39,-181.963 2014.88,-188.504"/>
<text text-anchor="middle" x="1607.41" y="-284.8" font-family="Times,serif" font-size="14.00">$techmapSPIFSM_1.$auto$opt_reduce.cc:126:opt_mux$2459</text>
</g>
<!-- TRFSM1_1&#45;&gt;$techmap\SPIFSM_1.$extract$\ByteMuxQuad$2539 -->
<g id="edge42" class="edge"><title>TRFSM1_1&#45;&gt;$techmap\SPIFSM_1.$extract$\ByteMuxQuad$2539</title>
<path fill="none" stroke="black" d="M1163.28,-410.897C1206.68,-371.555 1320.97,-275.102 1436.91,-237 1509.01,-213.305 1702.56,-227.092 1777.91,-218 1847.3,-209.627 1925.14,-194.784 1982.59,-182.777"/>
<polygon fill="black" stroke="black" points="1983.64,-186.131 1992.71,-180.646 1982.2,-179.281 1983.64,-186.131"/>
<text text-anchor="middle" x="1607.41" y="-240.8" font-family="Times,serif" font-size="14.00">$techmapSPIFSM_1.$procmux$297_CMP</text>
</g>
<!-- TRFSM1_1&#45;&gt;$techmap\SPIFSM_1.$extract$\ByteMuxQuad$2539 -->
<g id="edge43" class="edge"><title>TRFSM1_1&#45;&gt;$techmap\SPIFSM_1.$extract$\ByteMuxQuad$2539</title>
<path fill="none" stroke="black" d="M1163.36,-411.135C1216.98,-362.329 1373.47,-222.904 1436.91,-199 1437.24,-198.874 1704.36,-184.074 1890.71,-173.762"/>
<polygon fill="black" stroke="black" points="1891.12,-177.245 1900.91,-173.198 1890.74,-170.256 1891.12,-177.245"/>
<text text-anchor="middle" x="1607.41" y="-202.8" font-family="Times,serif" font-size="14.00">$techmapSPIFSM_1.$procmux$302_CMP</text>
</g>
<!-- TRFSM1_1&#45;&gt;$techmap\SPIFSM_1.$extract$\ByteRegister$2536 -->
<g id="edge44" class="edge"><title>TRFSM1_1&#45;&gt;$techmap\SPIFSM_1.$extract$\ByteRegister$2536</title>
<path fill="none" stroke="black" d="M1196.38,-431.404C1342.99,-441.294 1754.16,-470.378 1777.91,-487 1793.22,-497.716 1780.63,-514.236 1795.91,-525 1832.87,-551.046 1880.03,-561.413 1924.63,-564.176"/>
<polygon fill="black" stroke="black" points="1924.53,-567.676 1934.7,-564.676 1924.88,-560.684 1924.53,-567.676"/>
<text text-anchor="middle" x="1607.41" y="-490.8" font-family="Times,serif" font-size="14.00">SPIFSM_1.SPI_FSM_Wr0</text>
</g>
<!-- TRFSM1_1&#45;&gt;$techmap\SPIFSM_1.$extract$\ByteRegister$2537 -->
<g id="edge45" class="edge"><title>TRFSM1_1&#45;&gt;$techmap\SPIFSM_1.$extract$\ByteRegister$2537</title>
<path fill="none" stroke="black" d="M1196.49,-424.381C1304.65,-417.63 1563.17,-405.945 1777.91,-431 1780.56,-431.31 1901.33,-459.366 1985.98,-479.07"/>
<polygon fill="black" stroke="black" points="1985.32,-482.51 1995.85,-481.369 1986.91,-475.692 1985.32,-482.51"/>
<text text-anchor="middle" x="1607.41" y="-434.8" font-family="Times,serif" font-size="14.00">SPIFSM_1.SPI_FSM_Wr1</text>
</g>
<!-- TRFSM1_1&#45;&gt;$techmap\SPIFSM_1.$extract$\Counter32_RV1_Timer$2533.ThisCounter -->
<g id="edge46" class="edge"><title>TRFSM1_1&#45;&gt;$techmap\SPIFSM_1.$extract$\Counter32_RV1_Timer$2533.ThisCounter</title>
<path fill="none" stroke="black" d="M1197.2,-426.754C1258.43,-428.205 1359.13,-440.129 1418.91,-498 1439.52,-517.958 1414.56,-542.007 1436.91,-560 1466.49,-583.813 1740.75,-575.168 1777.91,-583 1865.89,-601.545 1963.21,-641.074 2019.58,-665.99"/>
<polygon fill="black" stroke="black" points="2018.38,-669.289 2028.94,-670.161 2021.23,-662.894 2018.38,-669.289"/>
<text text-anchor="middle" x="1607.41" y="-586.8" font-family="Times,serif" font-size="14.00">SPIFSM_1.SPI_FSM_TimerEnable</text>
</g>
<!-- TRFSM1_1&#45;&gt;$techmap\SPIFSM_1.$extract$\Counter32_RV1_Timer$2533.ThisCounter -->
<g id="edge47" class="edge"><title>TRFSM1_1&#45;&gt;$techmap\SPIFSM_1.$extract$\Counter32_RV1_Timer$2533.ThisCounter</title>
<path fill="none" stroke="black" d="M1196.84,-425.252C1259.42,-425.024 1363.16,-435.092 1418.91,-498 1459.93,-544.29 1391.83,-593.648 1436.91,-636 1464.58,-662.002 1740.07,-655.828 1777.91,-659 1822.01,-662.697 1869.84,-667.263 1913.67,-671.669"/>
<polygon fill="black" stroke="black" points="1913.53,-675.173 1923.83,-672.695 1914.24,-668.208 1913.53,-675.173"/>
<text text-anchor="middle" x="1607.41" y="-662.8" font-family="Times,serif" font-size="14.00">SPIFSM_1.SPI_FSM_TimerPreset</text>
</g>
<!-- TRFSM1_1&#45;&gt;TRFSM0_1 -->
<g id="edge56" class="edge"><title>TRFSM1_1&#45;&gt;TRFSM0_1</title>
<path fill="none" stroke="black" d="M1091.05,-425.429C1028.64,-425.41 925.327,-435.72 869.057,-498 832.902,-538.016 890.077,-580.773 851.057,-618 814.691,-652.694 668.076,-613.423 626.057,-641 535.687,-700.307 492.795,-831.484 477.782,-889.024"/>
<polygon fill="black" stroke="black" points="474.349,-888.325 475.298,-898.877 481.137,-890.036 474.349,-888.325"/>
<text text-anchor="middle" x="738.557" y="-644.8" font-family="Times,serif" font-size="14.00">SPIFSM_Done_s</text>
</g>
<!-- InstCONST_Bit_1 -->
<g id="node30" class="node"><title>InstCONST_Bit_1</title>
<ellipse fill="none" stroke="black" cx="470.269" cy="-1212" rx="76.8869" ry="18"/>
<text text-anchor="middle" x="470.269" y="-1208.3" font-family="Times,serif" font-size="14.00">InstCONST_Bit_1</text>
</g>
<!-- InstCONST_Bit_1&#45;&gt;InstOutSPI_CPOL_o -->
<g id="edge16" class="edge"><title>InstCONST_Bit_1&#45;&gt;InstOutSPI_CPOL_o</title>
<path fill="none" stroke="black" d="M513.094,-1227.04C543.932,-1237.55 587.115,-1251.08 626.057,-1259 772.569,-1288.81 946.03,-1302.23 1050.14,-1308"/>
<polygon fill="black" stroke="black" points="1050.13,-1311.5 1060.31,-1308.55 1050.51,-1304.51 1050.13,-1311.5"/>
<text text-anchor="middle" x="738.557" y="-1293.8" font-family="Times,serif" font-size="14.00">CONST_Bit_1</text>
</g>
<!-- InstCONST_Bit_1&#45;&gt;InstOutSPI_CPHA_o -->
<g id="edge17" class="edge"><title>InstCONST_Bit_1&#45;&gt;InstOutSPI_CPHA_o</title>
<path fill="none" stroke="black" d="M541.353,-1218.76C567.875,-1221.21 598.345,-1223.89 626.057,-1226 774.211,-1237.28 946.485,-1247.33 1050.01,-1253.04"/>
<polygon fill="black" stroke="black" points="1049.94,-1256.54 1060.12,-1253.6 1050.33,-1249.55 1049.94,-1256.54"/>
<text text-anchor="middle" x="738.557" y="-1243.8" font-family="Times,serif" font-size="14.00">CONST_Bit_1</text>
</g>
<!-- InstCONST_Bit_1&#45;&gt;$techmap\SPIFSM_1.$extract$\Counter32_RV1_Timer$2533.ThisCounter -->
<g id="edge18" class="edge"><title>InstCONST_Bit_1&#45;&gt;$techmap\SPIFSM_1.$extract$\Counter32_RV1_Timer$2533.ThisCounter</title>
<path fill="none" stroke="black" d="M543.234,-1206.38C619.777,-1200 744.29,-1188.42 851.057,-1173 1105.16,-1136.3 1183.71,-1169.93 1418.91,-1067 1610.35,-983.214 1611.87,-885.008 1795.91,-786 1859.15,-751.976 1936.67,-725.321 1992.63,-708.455"/>
<polygon fill="black" stroke="black" points="1993.89,-711.733 2002.47,-705.523 1991.89,-705.024 1993.89,-711.733"/>
<text text-anchor="middle" x="1143.98" y="-1172.8" font-family="Times,serif" font-size="14.00">CONST_Bit_1</text>
</g>
<!-- InstCONST_Bit_1&#45;&gt;$techmap\SensorFSM_1.$extract$\AddSubCmp_Greater_Direct$2538.ThisAddSubCmp -->
<g id="edge19" class="edge"><title>InstCONST_Bit_1&#45;&gt;$techmap\SensorFSM_1.$extract$\AddSubCmp_Greater_Direct$2538.ThisAddSubCmp</title>
<path fill="none" stroke="black" d="M547.072,-1212C671.49,-1212 926.804,-1212 1142.98,-1212 1142.98,-1212 1142.98,-1212 3795.11,-1212 3960.58,-1212 4007.43,-1191.69 4155.09,-1117 4280.2,-1053.72 4409.8,-946.836 4465.26,-898.747"/>
<polygon fill="black" stroke="black" points="4467.66,-901.3 4472.9,-892.091 4463.06,-896.023 4467.66,-901.3"/>
<text text-anchor="middle" x="2688.06" y="-1215.8" font-family="Times,serif" font-size="14.00">CONST_Bit_1</text>
</g>
<!-- InstCONST_Bit_1&#45;&gt;$techmap\SensorFSM_1.$extract$\Counter_RV1_Timer$2532.ThisCounter -->
<g id="edge20" class="edge"><title>InstCONST_Bit_1&#45;&gt;$techmap\SensorFSM_1.$extract$\Counter_RV1_Timer$2532.ThisCounter</title>
<path fill="none" stroke="black" d="M510.92,-1196.62C541.935,-1184.97 586.315,-1169.12 626.057,-1158 724.522,-1130.44 763.155,-1162.23 851.057,-1110 861.624,-1103.72 858.386,-1095.1 869.057,-1089 895.261,-1074.01 924.993,-1063.42 954.97,-1055.97"/>
<polygon fill="black" stroke="black" points="955.785,-1059.38 964.707,-1053.66 954.17,-1052.57 955.785,-1059.38"/>
<text text-anchor="middle" x="738.557" y="-1161.8" font-family="Times,serif" font-size="14.00">CONST_Bit_1</text>
</g>
<!-- InstCONST_Bit_0 -->
<g id="node31" class="node"><title>InstCONST_Bit_0</title>
<ellipse fill="none" stroke="black" cx="107.24" cy="-555" rx="76.8869" ry="18"/>
<text text-anchor="middle" x="107.24" y="-551.3" font-family="Times,serif" font-size="14.00">InstCONST_Bit_0</text>
</g>
<!-- InstCONST_Bit_0&#45;&gt;InstOutSPI_LSBFE_o -->
<g id="edge21" class="edge"><title>InstCONST_Bit_0&#45;&gt;InstOutSPI_LSBFE_o</title>
<path fill="none" stroke="black" d="M180.866,-560.23C237.041,-564.276 315.233,-569.907 376.031,-574.285"/>
<polygon fill="black" stroke="black" points="375.791,-577.777 386.017,-575.004 376.294,-570.795 375.791,-577.777"/>
<text text-anchor="middle" x="273.481" y="-572.8" font-family="Times,serif" font-size="14.00">CONST_Bit_0</text>
</g>
<!-- InstCONST_Bit_0&#45;&gt;$techmap\SPIFSM_1.$extract$\Counter32_RV1_Timer$2533.ThisCounter -->
<g id="edge22" class="edge"><title>InstCONST_Bit_0&#45;&gt;$techmap\SPIFSM_1.$extract$\Counter32_RV1_Timer$2533.ThisCounter</title>
<path fill="none" stroke="black" d="M140.063,-571.384C164.805,-583.683 200.232,-600.341 232.481,-612 398.007,-671.845 450.185,-648.958 626.057,-656 1030.59,-672.198 1499.34,-680.703 1789.62,-684.769"/>
<polygon fill="black" stroke="black" points="1789.82,-688.272 1799.87,-684.912 1789.92,-681.273 1789.82,-688.272"/>
<text text-anchor="middle" x="738.557" y="-666.8" font-family="Times,serif" font-size="14.00">CONST_Bit_0</text>
</g>
<!-- InstCONST_Bit_0&#45;&gt;$techmap\SensorFSM_1.$extract$\AddSubCmp_Greater_Direct$2538.ThisAddSubCmp -->
<g id="edge23" class="edge"><title>InstCONST_Bit_0&#45;&gt;$techmap\SensorFSM_1.$extract$\AddSubCmp_Greater_Direct$2538.ThisAddSubCmp</title>
<path fill="none" stroke="black" d="M129.365,-572.383C153.092,-591.097 193.41,-620.526 232.481,-638 499.183,-757.28 579.836,-760.653 869.057,-802 1546.08,-898.786 1723.16,-851 2407.06,-851 2407.06,-851 2407.06,-851 3795.11,-851 3943.27,-851 4109.03,-856.24 4241.83,-861.718"/>
<polygon fill="black" stroke="black" points="4242.01,-865.228 4252.14,-862.146 4242.3,-858.234 4242.01,-865.228"/>
<text text-anchor="middle" x="2408.06" y="-854.8" font-family="Times,serif" font-size="14.00">CONST_Bit_0</text>
</g>
<!-- InstCONST_Bit_0&#45;&gt;$techmap\SensorFSM_1.$extract$\Counter_RV1_Timer$2532.ThisCounter -->
<g id="edge24" class="edge"><title>InstCONST_Bit_0&#45;&gt;$techmap\SensorFSM_1.$extract$\Counter_RV1_Timer$2532.ThisCounter</title>
<path fill="none" stroke="black" d="M109.152,-573.219C114.18,-651.424 145.67,-959.773 332.481,-1072 447.811,-1141.28 842.527,-1089.31 1035.3,-1058.5"/>
<polygon fill="black" stroke="black" points="1036.14,-1061.91 1045.45,-1056.86 1035.02,-1055 1036.14,-1061.91"/>
<text text-anchor="middle" x="470.269" y="-1109.8" font-family="Times,serif" font-size="14.00">CONST_Bit_0</text>
</g>
<!-- InstCONST_Bit_0&#45;&gt;TRFSM0_1 -->
<g id="edge25" class="edge"><title>InstCONST_Bit_0&#45;&gt;TRFSM0_1</title>
<path fill="none" stroke="black" d="M112.532,-573.288C124.137,-619.044 160.247,-739.827 232.481,-810 284.157,-860.201 363.513,-889.41 415.901,-904.28"/>
<polygon fill="black" stroke="black" points="415.108,-907.692 425.679,-906.979 416.97,-900.945 415.108,-907.692"/>
<text text-anchor="middle" x="273.481" y="-868.8" font-family="Times,serif" font-size="14.00">CONST_Bit_0</text>
</g>
<!-- InstCONST_Bit_0&#45;&gt;TRFSM1_1 -->
<g id="edge26" class="edge"><title>InstCONST_Bit_0&#45;&gt;TRFSM1_1</title>
<path fill="none" stroke="black" d="M180.616,-549.522C354.445,-536.286 785.93,-502.921 851.057,-493 936.281,-480.017 1033.75,-456.533 1091.74,-441.631"/>
<polygon fill="black" stroke="black" points="1092.94,-444.936 1101.74,-439.044 1091.18,-438.159 1092.94,-444.936"/>
<text text-anchor="middle" x="470.269" y="-541.8" font-family="Times,serif" font-size="14.00">CONST_Bit_0</text>
</g>
<!-- InstCONST_Bit_0&#45;&gt;TRFSM1_1 -->
<g id="edge27" class="edge"><title>InstCONST_Bit_0&#45;&gt;TRFSM1_1</title>
<path fill="none" stroke="black" d="M155.011,-540.738C200.047,-527.572 270.299,-508.516 332.481,-498 476.583,-473.629 917.394,-442.914 1081.01,-432.04"/>
<polygon fill="black" stroke="black" points="1081.63,-435.506 1091.37,-431.352 1081.17,-428.521 1081.63,-435.506"/>
<text text-anchor="middle" x="470.269" y="-501.8" font-family="Times,serif" font-size="14.00">CONST_Bit_0</text>
</g>
<!-- InstCONST_Bit_0&#45;&gt;TRFSM1_1 -->
<g id="edge28" class="edge"><title>InstCONST_Bit_0&#45;&gt;TRFSM1_1</title>
<path fill="none" stroke="black" d="M134.871,-538.066C175.576,-513.244 256.559,-467.979 332.481,-450 606.485,-385.112 947.156,-408.198 1083,-421.392"/>
<polygon fill="black" stroke="black" points="1082.9,-424.899 1093.2,-422.401 1083.59,-417.933 1082.9,-424.899"/>
<text text-anchor="middle" x="470.269" y="-453.8" font-family="Times,serif" font-size="14.00">CONST_Bit_0</text>
</g>
<!-- InstCONST_Bit_0&#45;&gt;TRFSM1_1 -->
<g id="edge29" class="edge"><title>InstCONST_Bit_0&#45;&gt;TRFSM1_1</title>
<path fill="none" stroke="black" d="M123.668,-537.348C157.153,-500.682 240.884,-417.641 332.481,-393 610.183,-318.295 960.493,-385.021 1090.93,-415.096"/>
<polygon fill="black" stroke="black" points="1090.14,-418.505 1100.68,-417.368 1091.73,-411.688 1090.14,-418.505"/>
<text text-anchor="middle" x="470.269" y="-396.8" font-family="Times,serif" font-size="14.00">CONST_Bit_0</text>
</g>
<!-- InstCONST_Bit_0&#45;&gt;TRFSM1_1 -->
<g id="edge30" class="edge"><title>InstCONST_Bit_0&#45;&gt;TRFSM1_1</title>
<path fill="none" stroke="black" d="M118.274,-536.855C145.339,-490.343 225.11,-368.579 332.481,-341 616.41,-268.071 971.505,-370.122 1096.71,-411.733"/>
<polygon fill="black" stroke="black" points="1095.77,-415.111 1106.37,-414.976 1098,-408.475 1095.77,-415.111"/>
<text text-anchor="middle" x="470.269" y="-344.8" font-family="Times,serif" font-size="14.00">CONST_Bit_0</text>
</g>
<!-- InstCONST_Bit_0&#45;&gt;TRFSM1_1 -->
<g id="edge31" class="edge"><title>InstCONST_Bit_0&#45;&gt;TRFSM1_1</title>
<path fill="none" stroke="black" d="M114.506,-536.927C129.184,-496.966 169.399,-400.13 232.481,-343 268.742,-310.161 284.692,-307.464 332.481,-297 557.76,-247.67 626.081,-264.306 851.057,-315 945.277,-336.231 1049.37,-382.443 1104.22,-408.719"/>
<polygon fill="black" stroke="black" points="1102.7,-411.875 1113.23,-413.071 1105.75,-405.571 1102.7,-411.875"/>
<text text-anchor="middle" x="470.269" y="-300.8" font-family="Times,serif" font-size="14.00">CONST_Bit_0</text>
</g>
<!-- InstCONST_Bit_0&#45;&gt;TRFSM1_1 -->
<g id="edge32" class="edge"><title>InstCONST_Bit_0&#45;&gt;TRFSM1_1</title>
<path fill="none" stroke="black" d="M153.588,-569.489C198.46,-582.924 269.384,-601.752 332.481,-608 454.363,-620.069 487.5,-629.608 608.057,-608 721.419,-587.681 755.766,-582.682 851.057,-518 860.951,-511.284 858.825,-504.19 869.057,-498 935.12,-458.032 1023.42,-440.752 1081.69,-433.369"/>
<polygon fill="black" stroke="black" points="1082.34,-436.816 1091.85,-432.143 1081.5,-429.866 1082.34,-436.816"/>
<text text-anchor="middle" x="470.269" y="-623.8" font-family="Times,serif" font-size="14.00">CONST_Bit_0</text>
</g>
<!-- InstCONST_Byte_00001000 -->
<g id="node32" class="node"><title>InstCONST_Byte_00001000</title>
<ellipse fill="none" stroke="black" cx="1143.98" cy="-180" rx="113.18" ry="18"/>
<text text-anchor="middle" x="1143.98" y="-176.3" font-family="Times,serif" font-size="14.00">InstCONST_Byte_00001000</text>
</g>
<!-- InstCONST_Byte_00001000&#45;&gt;$techmap\SPIFSM_1.$extract$\ByteMuxQuad$2539 -->
<g id="edge37" class="edge"><title>InstCONST_Byte_00001000&#45;&gt;$techmap\SPIFSM_1.$extract$\ByteMuxQuad$2539</title>
<path fill="none" stroke="black" d="M1249.31,-173.378C1304.96,-170.165 1374.64,-166.648 1436.91,-165 1579.89,-161.216 1741.17,-161.035 1864.8,-161.764"/>
<polygon fill="black" stroke="black" points="1865.11,-165.266 1875.14,-161.828 1865.16,-158.266 1865.11,-165.266"/>
<text text-anchor="middle" x="1607.41" y="-168.8" font-family="Times,serif" font-size="14.00">CONST_Byte_00001000</text>
</g>
<!-- InstCONST_Byte_11111111 -->
<g id="node33" class="node"><title>InstCONST_Byte_11111111</title>
<ellipse fill="none" stroke="black" cx="1143.98" cy="-126" rx="113.18" ry="18"/>
<text text-anchor="middle" x="1143.98" y="-122.3" font-family="Times,serif" font-size="14.00">InstCONST_Byte_11111111</text>
</g>
<!-- InstCONST_Byte_11111111&#45;&gt;$techmap\SPIFSM_1.$extract$\ByteMuxQuad$2539 -->
<g id="edge38" class="edge"><title>InstCONST_Byte_11111111&#45;&gt;$techmap\SPIFSM_1.$extract$\ByteMuxQuad$2539</title>
<path fill="none" stroke="black" d="M1256.8,-127.463C1383.32,-129.477 1595.52,-133.936 1777.91,-143 1821.31,-145.157 1868.32,-148.245 1911.57,-151.392"/>
<polygon fill="black" stroke="black" points="1911.38,-154.887 1921.61,-152.128 1911.89,-147.906 1911.38,-154.887"/>
<text text-anchor="middle" x="1607.41" y="-146.8" font-family="Times,serif" font-size="14.00">CONST_Byte_11111111</text>
</g>
<!-- InstCONST_Byte_01010000 -->
<g id="node34" class="node"><title>InstCONST_Byte_01010000</title>
<ellipse fill="none" stroke="black" cx="1143.98" cy="-72" rx="113.18" ry="18"/>
<text text-anchor="middle" x="1143.98" y="-68.3" font-family="Times,serif" font-size="14.00">InstCONST_Byte_01010000</text>
</g>
<!-- InstCONST_Byte_01010000&#45;&gt;$techmap\SPIFSM_1.$extract$\ByteMuxQuad$2539 -->
<g id="edge39" class="edge"><title>InstCONST_Byte_01010000&#45;&gt;$techmap\SPIFSM_1.$extract$\ByteMuxQuad$2539</title>
<path fill="none" stroke="black" d="M1255.09,-75.4663C1381.62,-80.2987 1595.33,-91.0622 1777.91,-113 1845.27,-121.094 1920.74,-134.545 1977.7,-145.601"/>
<polygon fill="black" stroke="black" points="1977.27,-149.084 1987.76,-147.565 1978.62,-142.213 1977.27,-149.084"/>
<text text-anchor="middle" x="1607.41" y="-116.8" font-family="Times,serif" font-size="14.00">CONST_Byte_01010000</text>
</g>
<!-- InstCONST_Byte_00100000 -->
<g id="node35" class="node"><title>InstCONST_Byte_00100000</title>
<ellipse fill="none" stroke="black" cx="1143.98" cy="-18" rx="113.18" ry="18"/>
<text text-anchor="middle" x="1143.98" y="-14.3" font-family="Times,serif" font-size="14.00">InstCONST_Byte_00100000</text>
</g>
<!-- InstCONST_Byte_00100000&#45;&gt;$techmap\SPIFSM_1.$extract$\ByteMuxQuad$2539 -->
<g id="edge40" class="edge"><title>InstCONST_Byte_00100000&#45;&gt;$techmap\SPIFSM_1.$extract$\ByteMuxQuad$2539</title>
<path fill="none" stroke="black" d="M1257.32,-18.3924C1384.75,-20.7492 1598.21,-30.5037 1777.91,-67 1863.55,-84.394 1958.95,-119.647 2015.98,-142.521"/>
<polygon fill="black" stroke="black" points="2014.9,-145.859 2025.48,-146.361 2017.52,-139.369 2014.9,-145.859"/>
<text text-anchor="middle" x="1607.41" y="-70.8" font-family="Times,serif" font-size="14.00">CONST_Byte_00100000</text>
</g>
</g>
</svg>
